<svg width="365" height="365" viewBox="0 0 365 365" fill="none" xmlns="http://www.w3.org/2000/svg">
<circle cx="182.5" cy="182.5" r="182.5" fill="black"/>
<path d="M111.64 218H68.248V132.24H111.64C139.928 132.24 157.848 147.984 157.848 175.12C157.848 202.256 139.928 218 111.64 218ZM111.64 153.872H92.312V196.368H111.64C126.872 196.368 132.12 194.448 132.12 175.12C132.12 155.792 126.872 153.872 111.64 153.872Z" fill="white"/>
<path d="M263.64 218H220.248V132.24H263.64C291.928 132.24 309.848 147.984 309.848 175.12C309.848 202.256 291.928 218 263.64 218ZM263.64 153.872H244.312V196.368H263.64C278.872 196.368 284.12 194.448 284.12 175.12C284.12 155.792 278.872 153.872 263.64 153.872Z" fill="white"/>
<path d="M205.36 235.024H159.28V218H205.36V235.024Z" fill="white"/>
</svg>
